<?xml version="1.0" encoding="UTF-8"?>
<svg width="100pt" height="100pt" version="1.1" viewBox="0 0 100 100" xmlns="http://www.w3.org/2000/svg">
    <path d="m37.672 86.641c-4.1445-0.003906-8.1172-1.6602-11.031-4.6055-2.9141-2.9453-4.5312-6.9336-4.4883-11.078 0.039062-4.1445 1.7344-8.1016 4.707-10.988v-35.797c0-5.9727 4.8398-10.812 10.812-10.812s10.812 4.8398 10.812 10.812v35.797c2.9727 2.8867 4.668 6.8438 4.707 10.988 0.042969 4.1445-1.5742 8.1328-4.4883 11.078-2.9141 2.9453-6.8867 4.6016-11.031 4.6055zm0-67.031c-2.5195 0-4.5625 2.043-4.5625 4.5625v38.719l-1.1875 0.9375c-3.1016 2.4492-4.3125 6.5938-3.0195 10.328 1.2969 3.7344 4.8164 6.2383 8.7695 6.2383s7.4727-2.5039 8.7695-6.2383c1.293-3.7344 0.082032-7.8789-3.0195-10.328l-1.1875-0.9375v-38.719c0-2.5195-2.043-4.5625-4.5625-4.5625zm40.188 2.7188h-20.312v6.25h20.312zm0 17.547h-20.312v6.25h20.312zm0 17.547h-17.188v6.25h17.188z" stroke="red" fill="red"/>
</svg>
